<?xml version="1.0" standalone="no"?>
<!DOCTYPE svg PUBLIC "-//W3C//DTD SVG 20010904//EN"
 "http://www.w3.org/TR/2001/REC-SVG-20010904/DTD/svg10.dtd">
<svg version="1.0" xmlns="http://www.w3.org/2000/svg"
 width="512.000000pt" height="512.000000pt" viewBox="0 0 512.000000 512.000000"
 preserveAspectRatio="xMidYMid meet">

<g transform="translate(0.000000,512.000000) scale(0.100000,-0.100000)"
fill="#01102C" stroke="none">
<path d="M238 4341 c-63 -20 -141 -73 -174 -118 -56 -75 -64 -105 -64 -233 0
-108 3 -126 24 -168 34 -68 100 -130 176 -166 l65 -31 2275 -3 c2524 -2 2329
-8 2435 63 55 38 91 79 124 142 18 36 21 59 21 163 0 104 -3 127 -21 163 -34
66 -66 102 -122 140 -106 72 88 67 -2421 66 -2159 0 -2264 -1 -2318 -18z"/>
<path d="M235 2909 c-79 -25 -146 -76 -192 -146 l-38 -56 0 -147 0 -147 38
-56 c47 -71 113 -121 196 -147 62 -20 89 -20 2321 -20 2232 0 2259 0 2321 20
83 26 149 76 196 147 l38 56 0 147 0 147 -38 56 c-47 71 -113 121 -196 147
-62 20 -88 20 -2325 19 -2212 0 -2262 -1 -2321 -20z"/>
<path d="M255 1486 c-103 -33 -187 -101 -231 -188 -21 -42 -24 -60 -24 -168 0
-104 3 -127 21 -163 49 -96 114 -152 216 -186 l62 -21 2260 0 c2193 0 2261 1
2320 19 96 30 168 91 216 183 23 43 25 59 25 168 0 104 -3 127 -21 163 -33 63
-69 104 -124 141 -106 71 90 66 -2419 65 -1797 0 -2269 -3 -2301 -13z"/>
</g>
</svg>
